HIERARCHY
ROOT ui
{
	 OFFSET 0 0 0
	 CHANNELS 3 XPosition YPosition Z Position
	 EndSite
	 {
	 OFFSET 0 -1 0
	 }
}
ROOT li
{
	 OFFSET 0 0 0
	 CHANNELS 3 XPosition YPosition Z Position
	 EndSite
	 {
	 OFFSET 0 -1 0
	 }
}
ROOT ul
{
	 OFFSET 0 0 0
	 CHANNELS 3 XPosition YPosition Z Position
	 EndSite
	 {
	 OFFSET 0 -1 0
	 }
}
ROOT ll
{
	 OFFSET 0 0 0
	 CHANNELS 3 XPosition YPosition Z Position
	 EndSite
	 {
	 OFFSET 0 -1 0
	 }
}
ROOT tt
{
	 OFFSET 0 0 0
	 CHANNELS 3 XPosition YPosition Z Position
	 EndSite
	 {
	 OFFSET 0 -1 0
	 }
}
ROOT tb
{
	 OFFSET 0 0 0
	 CHANNELS 3 XPosition YPosition Z Position
	 EndSite
	 {
	 OFFSET 0 -1 0
	 }
}
ROOT td
{
	 OFFSET 0 0 0
	 CHANNELS 3 XPosition YPosition Z Position
	 EndSite
	 {
	 OFFSET 0 -1 0
	 }
}
ROOT v
{
	 OFFSET 0 0 0
	 CHANNELS 3 XPosition YPosition Z Position
	 EndSite
	 {
	 OFFSET 0 -1 0
	 }
}
ROOT bn
{
	 OFFSET 0 0 0
	 CHANNELS 3 XPosition YPosition Z Position
	 EndSite
	 {
	 OFFSET 0 -1 0
	 }
}
MOTION
Frames: 24
Frame Time: 0.002
-0.004730157852172852	-3.7339898943901064E-4	0		0.492704833984375	-2.395358154296875	0		-1.1538770751953125	0.09389447784423828	0		-0.7697400512695313	-2.57557421875	0		1.49024755859375	-0.5876676635742187	0		3.159264404296875	0.13840603637695312	0		4.64673193359375	0.229460205078125	0		5.6256171875	0.09290327453613281	0		-0.15543144226074218	5.969625	0		
0.02099137306213379	-0.009273539543151856	0		0.48031820678710935	-2.38727197265625	0		-1.1549654541015626	0.09435330200195312	0		-0.8411629028320312	-2.5704267578125	0		1.4893070068359375	-0.5866348266601562	0		3.1622783203125	0.14470945739746094	0		4.64561376953125	0.23117831420898438	0		5.624884765625	0.0962071304321289	0		-0.15877259826660156	5.97132275390625	0		
-0.005090701103210449	-0.00801505947113037	0		0.4797068176269531	-2.38648193359375	0		-1.0811158447265625	0.09213420104980469	0		-0.7718672485351562	-2.5764697265625	0		1.48524560546875	-0.5895740356445313	0		3.119102294921875	0.14397988891601562	0		4.63965771484375	0.24091397094726563	0		5.62528857421875	0.06984551239013671	0		-0.17625852966308594	5.9633232421875	0		
0.018809520721435546	-0.0079021258354187	0		0.48884588623046876	-2.3949443359375	0		-1.15718701171875	0.09527362060546875	0		-0.8423622436523438	-2.569385986328125	0		1.493189453125	-0.591831787109375	0		3.146951416015625	0.14357591247558593	0		4.63818505859375	0.2274365997314453	0		5.621080078125	0.08505413055419922	0		-0.14802989196777344	5.9822890625	0		
-0.004180003166198731	-0.002775197982788086	0		0.49124334716796875	-2.390291748046875	0		-1.14911279296875	0.10352169036865234	0		-0.7921464233398438	-2.575009765625	0		1.4952899169921876	-0.5870138549804688	0		3.167882080078125	0.1462472381591797	0		4.6363720703125	0.24285821533203125	0		5.62970947265625	0.0993439712524414	0		-0.1491217498779297	5.9818818359375	0		
0.019732196807861327	-0.0037200000286102294	0		0.49259649658203125	-2.3866611328125	0		-1.1501881103515625	0.10395806121826172	0		-0.8385794067382812	-2.562515380859375	0		1.494315185546875	-0.5861923828125	0		3.1530009765625	0.1566171417236328	0		4.6404287109375	0.25102586364746093	0		5.62897265625	0.10178304290771484	0		-0.15203105163574218	5.9834853515625	0		
-0.009350325584411621	-0.005541879177093506	0		0.4867216796875	-2.392923828125	0		-1.085437255859375	0.09394088745117188	0		-0.809462158203125	-2.570708740234375	0		1.484432373046875	-0.5822440185546875	0		3.14784912109375	0.15266751098632814	0		4.6400673828125	0.23815687561035156	0		5.62117431640625	0.10953245544433594	0		-0.3014722595214844	5.9552431640625	0		
0.01773077201843262	-0.0026284129619598387	0		0.485998046875	-2.392349365234375	0		-1.1613858642578125	0.09697494506835938	0		-0.8101668701171875	-2.570272216796875	0		1.4835162353515625	-0.5815635986328125	0		3.146854736328125	0.1535247039794922	0		4.63423876953125	0.24727926635742187	0		5.6140732421875	0.11178996276855468	0		-0.17063702392578126	5.97486474609375	0		
-0.01125000286102295	-0.004542129039764404	0		0.485283447265625	-2.391828125	0		-1.1623170166015624	0.09735294342041016	0		-0.810865966796875	-2.569863525390625	0		1.488491455078125	-0.58808349609375	0		3.145918701171875	0.15427751159667968	0		4.63812060546875	0.24005531311035155	0		5.61755078125	0.09592823791503906	0		-0.2893115234375	5.96585986328125	0		
0.015949048042297364	-0.0017118840217590333	0		0.4607021179199219	-2.38584423828125	0		-1.154012939453125	0.10551194763183594	0		-0.8325864868164062	-2.571031982421875	0		1.490758056640625	-0.5836116943359375	0		3.149155517578125	0.15984173583984376	0		4.626548828125	0.2550433349609375	0		5.62219970703125	0.12648049926757812	0		-0.14488328552246094	5.9971435546875	0		
0.015160016059875488	-0.0013204020261764525	0		0.4870106201171875	-2.38700927734375	0		-1.08084619140625	0.10325226593017578	0		-0.809138671875	-2.566201904296875	0		1.4841298828125	-0.5770152587890625	0		3.14835791015625	0.16039779663085937	0		4.63574365234375	0.2554621276855469	0		5.61868359375	0.11569977569580078	0		-0.1592422332763672	5.98580908203125	0		
0.014445877075195313	-9.726309776306153E-4	0		0.44961029052734375	-2.375852294921875	0		-1.1646953125	0.09834007263183593	0		-0.8107978515625	-2.567863525390625	0		1.4862225341796875	-0.586673583984375	0		3.151743896484375	0.16577790832519532	0		4.63884716796875	0.24790185546875	0		5.6181787109375	0.11666397857666015	0		-0.16018431091308594	5.98614990234375	0		
0.010744412422180176	-0.003602457046508789	0		0.48272515869140625	-2.390260986328125	0		-1.165335693359375	0.09861527252197265	0		-0.813391357421875	-2.5685361328125	0		1.4797508544921876	-0.5792039794921875	0		3.142889404296875	0.15633668518066407	0		4.6350751953125	0.24239047241210937	0		5.61772705078125	0.11743447875976562	0		-0.17714234924316405	5.97879541015625	0		
-0.014813094139099122	-0.0028030269145965575	0		0.45626690673828124	-2.38643408203125	0		-1.1659005126953126	0.09886235809326172	0		-0.8380401000976563	-2.573768798828125	0		1.4850447998046874	-0.586045166015625	0		3.11333056640625	0.1572674102783203	0		4.623810546875	0.25695440673828124	0		5.621453125	0.10051228332519531	0		-0.17585748291015624	5.9760146484375	0		
0.01275296974182129	-1.775760054588318E-4	0		0.48686642456054685	-2.382870361328125	0		-1.1531602783203125	0.10980085754394531	0		-0.8333908081054687	-2.56765625	0		1.48764111328125	-0.5818768310546875	0		3.154892578125	0.15960995483398438	0		4.6361220703125	0.24792845153808593	0		5.62406201171875	0.1129125747680664	0		-0.14598141479492188	5.9945927734375	0		
-0.012643291473388671	0.0015468230247497558	0		0.48643743896484376	-2.38268212890625	0		-1.157646728515625	0.10707942199707031	0		-0.8117611083984375	-2.564936279296875	0		1.48134619140625	-0.575563720703125	0		3.134645263671875	0.1682183380126953	0		4.632892578125	0.25716925048828126	0		5.6196337890625	0.13073622131347656	0		-0.16353665161132813	5.9881484375	0		
0.011971512794494628	1.6823500394821166E-4	0		0.480909912109375	-2.389421142578125	0		-1.092211669921875	0.09683467102050781	0		-0.8501541748046875	-2.564958984375	0		1.4779195556640625	-0.5783552856445312	0		3.141051513671875	0.15720013427734375	0		4.6284091796875	0.25137240600585936	0		5.6164189453125	0.11896475219726563	0		-0.17709664916992188	5.97658740234375	0		
-0.016381975173950195	-0.002105272054672241	0		0.47281875610351565	-2.378133056640625	0		-1.0925059814453124	0.09697578430175781	0		-0.7806084594726562	-2.57131982421875	0		1.4745308837890625	-0.5821845092773438	0		3.11487109375	0.1628386688232422	0		4.6281171875	0.25143440246582033	0		5.6162060546875	0.1190507583618164	0		-0.17828797912597658	5.97773681640625	0		
0.008376493453979492	-0.002542699098587036	0		0.4803028564453125	-2.3892119140625	0		-1.1677012939453124	0.09970182800292969	0		-0.8399408569335938	-2.572941650390625	0		1.48321826171875	-0.5853047485351562	0		3.140525146484375	0.15732505798339844	0		4.62686474609375	0.25047189331054687	0		5.60662744140625	0.10396658325195313	0		-0.16320603942871093	5.9875146484375	0		
-0.01371033763885498	0.002002345085144043	0		0.458230712890625	-2.381677490234375	0		-1.158707275390625	0.10760499572753907	0		-0.8032021484375	-2.574644287109375	0		1.4861136474609375	-0.5813270263671875	0		3.139608642578125	0.16935227966308594	0		4.62184326171875	0.2575552062988281	0		5.62299072265625	0.11341975402832032	0		-0.16325912475585938	5.987591796875	0		
0.06110783004760742	-0.0015557999610900878	0		0.48298446655273436	-2.385171875	0		-1.1639112548828126	0.10379257202148437	0		-0.8480927734375	-2.560609130859375	0		1.485978759765625	-0.5813082885742188	0		3.149187744140625	0.15512161254882811	0		4.6217275390625	0.25750228881835935	0		5.61877587890625	0.1308115692138672	0		-0.16324386596679688	5.98764794921875	0		
-0.013901779174804688	0.002090714931488037	0		0.48181427001953125	-2.38712646484375	0		-1.0931026611328125	0.09732936096191407	0		-0.7706296997070312	-2.5802275390625	0		1.47696142578125	-0.5781161499023437	0		3.1483798828125	0.16709945678710938	0		4.62753369140625	0.2512982482910156	0		5.61576318359375	0.11868369293212891	0		-0.17838121032714843	5.97801220703125	0		
0.007979931831359864	-0.002361193895339966	0		0.4796857604980469	-2.38907421875	0		-1.1680885009765625	0.09999199676513672	0		-0.853421142578125	-2.5654033203125	0		1.4769200439453125	-0.5781318969726562	0		3.135295166015625	0.1643232421875	0		4.62164306640625	0.2573327331542969	0		5.61574072265625	0.11848436737060547	0		-0.19247317504882813	5.9683408203125	0		
-0.013924345016479493	0.0021217119693756102	0		0.4796316833496094	-2.389076171875	0		-1.16808154296875	0.10003026580810546	0		-0.805706298828125	-2.576405517578125	0		1.482758056640625	-0.5852861328125	0		3.114265380859375	0.16270942687988282	0		4.62235205078125	0.24321096801757813	0		5.61986572265625	0.10074772644042969	0		-0.16289816284179687	5.9877255859375	0		
